<svg xmlns="http://www.w3.org/2000/svg" width="10.523" height="10.525" viewBox="0 0 10.523 10.525">
  <path id="_005-home" data-name="005-home" d="M10.241,4.577h0L5.947.283a.969.969,0,0,0-1.37,0L.285,4.574l0,0A.968.968,0,0,0,.926,6.229h.2V9.39a1.135,1.135,0,0,0,1.134,1.134h1.68a.308.308,0,0,0,.308-.308V7.739a.518.518,0,0,1,.517-.517h.991a.518.518,0,0,1,.517.517v2.477a.308.308,0,0,0,.308.308h1.68A1.135,1.135,0,0,0,9.4,9.39V6.231h.159a.969.969,0,0,0,.686-1.654Zm0,0" transform="translate(0 0.001)" fill="#888cc4"/>
</svg>
